<?xml version="1.0" encoding="utf-8"?>
<svg viewBox="0 0 500 500" xmlns="http://www.w3.org/2000/svg" xmlns:xlink="http://www.w3.org/1999/xlink">
  <defs>
    <linearGradient id="a-1" x1="1.0654" x2="-.065369" y1=".5" y2=".5" xlink:href="#gradient-1"/>
    <linearGradient id="gradient-1">
      <stop stop-color="#97c6f2" offset="0"/>
      <stop stop-color="#fff" stop-opacity="0" offset="0.5"/>
      <stop stop-color="#fff" stop-opacity="0" offset="0.75"/>
      <stop stop-color="#97c6f2" offset="1"/>
    </linearGradient>
    <linearGradient id="a-3" x1="-.014188" x2="1.013" y1=".47607" y2=".47607" xlink:href="#gradient-1"/>
    <linearGradient id="a-2" x1="-.012937" x2="1.0129" y1=".47366" y2=".47366" xlink:href="#gradient-1"/>
  </defs>
  <g transform="matrix(0.841252, 0, 0, 0.524476, 200.080368, 127.953415)" style="">
    <g transform="matrix(0.396219, 0, 0, 0.652725, 177.335007, 431.588013)" fill-rule="evenodd" style="">
      <g stroke-linecap="round" stroke-linejoin="round">
        <path d="m-342.66-387.22l10.625 10.625v67.312c-7.0866 10.63-48.434 89.774-70.875 134.66-7.0866 14.173-7.0674 31.889 3.5625 46.062 7.0866 10.63 19.461 14.188 31.875 14.188h127.56c12.414 0 24.788-3.5576 31.875-14.188 10.63-14.173 10.649-31.889 3.5625-46.062-20.079-44.882-43.702-89.774-63.781-134.66v-8.346c0-0.070679 52.253 0.070679 52.253 0 0-2.6385 0.088547-24.933 0.088547-27.571 0-0.070679-52.253 0.15924-52.342 0v-31.395l10.281-10.281 0.3438-0.3438h-85.031z" fill="#d7e9fc" stroke="#000" stroke-width="5.232"/>
        <path d="m-381.34-202.86c-14.787 26.369-0.098694-1.285-15.627 28.726-6.6401 12.833-6.6165 28.854 3.3438 41.688 6.6402 9.6248 18.244 12.844 29.875 12.844 39.841-3.1e-5 79.659 0 119.5 0 11.631-3.1e-5 23.235-3.2189 29.875-12.844 9.9602-12.833 9.3198-28.589 2.6797-41.422-1.5117-3.0884 2.3023 5.0005-14.332-29.346l-155.31 0.3542z" stroke="#555753" stroke-width=".625" style="fill: rgb(86, 151, 255);"/>
      </g>
      <path d="m-280.96-377.06v68.75c22.554 47.696 45.217 95.36 67.704 143.08 6.2912 14.895-1.5559 32.256-15.165 39.888-12.133 8.1439-27.078 4.9945-40.742 5.5569h-29.004c17.309-2.2286 34.971-2.6488 52.048-6.0916 11.216-3.5013 24.842-9.7419 25.527-23.29 0.70514-14.462-8.3663-26.699-13.192-39.769-17.392-39.79-34.784-79.58-52.176-119.37v-68.75l6.9607-7.5486h5.0319l-6.9926 7.5486z" fill="#fff"/>
      <path d="m-326.28-377.06v68.75c-22.554 47.696-49.689 91.036-72.176 138.75-6.2912 14.895-1.25 35 11.25 43.75 12.5 6.25 8.75 5 22.878 6.6385 9.668 0 45.586-0.61868 55.254-0.61868-17.309-2.2286-34.971-2.6488-52.048-6.0916-11.216-3.5013-24.842-9.7419-25.527-23.29-0.70517-14.462 8.3663-26.699 13.192-39.769 17.392-39.79 34.784-79.58 52.176-119.37v-68.75l-9.0374-9.0852h-5.0319l9.0693 9.0852z" fill-opacity=".176"/>
    </g>
    <g>
      <g stroke="#000" stroke-linejoin="round" transform="matrix(1, 0, 0, 1, 0, 13.307959)">
        <g stroke-width="2.812">
          <g fill-rule="evenodd">
            <path d="m70.579 142.33l-5.6828 63.577-12.244 8.5617-5.5644-72.162s5.7544 1.361 12.04 1.3574c6.6973-0.003815 11.452-1.3345 11.452-1.3345z" fill="url(#a-1)"/>
            <path d="m112.48 114.8c0.21664 0.25676-27.426 2.4697-54.465 2.5038-27.039 0.034164-53.446-2.1308-53.526-2.1329-0.079209-0.002075 43.025 26.141 43.025 26.141s3.5761 1.3253 10.145 1.3345c7.5093 0.010284 11.491-1.3574 11.491-1.3574s43.112-26.746 43.329-26.489z" fill="url(#a-3)"/>
          </g>
          <path d="m4.0409 71.262c36.149 2.1535 36.226 2.1535 54.34 2.1535 18.113 0 17.921 0 54.34-2.1535-0.10333 14.505-0.2066 29.01-0.30994 43.515-35.882 2.4917-36.169 2.5088-54.158 2.526-17.989 0.017151-17.896 0.034302-53.778-2.4231l-0.4338-43.618z" fill="url(#a-2)" stroke-linecap="round"/>
        </g>
        <path d="m112.65 71.107s-53.715 3.6646-108.53 0c54.743-8.2409 108.53 0 108.53 0z" fill="none" stroke-width="2.888"/>
      </g>
    </g>
  </g>
</svg>